<?xml version="1.0" standalone="no"?>
<!DOCTYPE svg PUBLIC "-//W3C//DTD SVG 20010904//EN"
 "http://www.w3.org/TR/2001/REC-SVG-20010904/DTD/svg10.dtd">
<svg version="1.0" xmlns="http://www.w3.org/2000/svg"
 width="197.000000pt" height="113.000000pt" viewBox="0 0 197.000000 113.000000"
 preserveAspectRatio="xMidYMid meet">

<g transform="translate(0.000000,113.000000) scale(0.100000,-0.100000)"
fill="#CFD8DC" stroke="none">
<path d="M0 565 l0 -565 985 0 985 0 0 356 0 356 -31 -7 c-17 -4 -90 -24 -163
-45 l-131 -38 4 -135 c3 -124 2 -136 -15 -144 -11 -6 -91 -31 -179 -58 -88
-26 -214 -65 -280 -86 l-120 -39 -147 58 -148 57 0 81 c0 77 -1 81 -25 92 -48
22 -52 17 -50 -58 1 -39 -2 -73 -6 -76 -4 -2 -54 14 -111 37 l-104 41 4 131
c2 73 7 135 11 140 4 4 24 0 45 -8 21 -9 40 -14 43 -12 2 3 -44 23 -103 46
-59 23 -108 40 -110 39 -1 -2 -4 -50 -6 -107 l-3 -103 35 -30 35 -29 -50 -44
c-27 -25 -54 -45 -60 -45 -5 0 -32 21 -59 47 -54 51 -54 49 14 94 23 15 25 24
30 125 4 71 3 113 -4 120 -6 6 -41 24 -78 40 -38 16 -68 32 -68 35 0 9 38 21
150 50 47 11 155 41 240 66 85 25 214 61 285 79 72 19 163 43 203 54 l73 19
122 -48 c67 -26 145 -58 172 -71 67 -31 184 -80 215 -90 14 -4 101 -40 194
-79 93 -39 171 -71 173 -71 1 0 3 88 3 195 l0 195 -985 0 -985 0 0 -565z"/>
<path d="M988 478 c5 -5 16 -8 23 -6 8 3 3 7 -10 11 -17 4 -21 3 -13 -5z"/>
<path d="M1145 480 c-13 -6 -15 -9 -5 -9 8 0 22 4 30 9 18 12 2 12 -25 0z"/>
<path d="M1443 483 c-30 -6 -32 -43 -2 -43 29 0 59 18 59 35 0 15 -13 16 -57
8z"/>
<path d="M1098 463 c7 -3 16 -2 19 1 4 3 -2 6 -13 5 -11 0 -14 -3 -6 -6z"/>
<path d="M1048 453 c6 -2 18 -2 25 0 6 3 1 5 -13 5 -14 0 -19 -2 -12 -5z"/>
<path d="M1333 450 c-13 -5 -23 -18 -23 -29 0 -17 4 -19 32 -10 18 5 34 9 35
9 2 0 3 9 3 20 0 22 -12 24 -47 10z"/>
<path d="M1458 416 c-27 -7 -38 -15 -38 -29 0 -16 5 -18 33 -12 38 8 50 18 45
36 -2 11 -11 12 -40 5z"/>
<path d="M1334 380 c-51 -20 -41 -53 11 -37 23 7 35 16 35 29 0 19 -13 22 -46
8z"/>
</g>
</svg>
